<?xml version="1.0" encoding="UTF-8" standalone="no"?>
<!-- Created with Inkscape (http://www.inkscape.org/) -->

<svg
   xmlns:dc="http://purl.org/dc/elements/1.1/"
   xmlns:cc="http://creativecommons.org/ns#"
   xmlns:rdf="http://www.w3.org/1999/02/22-rdf-syntax-ns#"
   xmlns:svg="http://www.w3.org/2000/svg"
   xmlns="http://www.w3.org/2000/svg"
   xmlns:sodipodi="http://sodipodi.sourceforge.net/DTD/sodipodi-0.dtd"
   xmlns:inkscape="http://www.inkscape.org/namespaces/inkscape"
   version="1.1"
   id="svg21566"
   xml:space="preserve"
   width="800"
   height="800"
   viewBox="0 0 800 800"
   sodipodi:docname="trophy-wreath-award.svg"
   inkscape:version="0.92.4 (5da689c313, 2019-01-14)"><metadata
     id="metadata21572"><rdf:RDF><cc:Work
         rdf:about=""><dc:format>image/svg+xml</dc:format><dc:type
           rdf:resource="http://purl.org/dc/dcmitype/StillImage" /><dc:title></dc:title></cc:Work></rdf:RDF></metadata><defs
     id="defs21570"><clipPath
       clipPathUnits="userSpaceOnUse"
       id="clipPath21582"><path
         d="M 0,600 H 600 V 0 H 0 Z"
         id="path21580"
         inkscape:connector-curvature="0" /></clipPath><linearGradient
       x1="0"
       y1="0"
       x2="1"
       y2="0"
       gradientUnits="userSpaceOnUse"
       gradientTransform="matrix(-1.53e-5,-481.97034,-481.97034,1.53e-5,190.03418,573.89551)"
       spreadMethod="pad"
       id="linearGradient21602"><stop
         style="stop-opacity:1;stop-color:#f0bf00"
         offset="0"
         id="stop21598" /><stop
         style="stop-opacity:1;stop-color:#694e0e"
         offset="1"
         id="stop21600" /></linearGradient><linearGradient
       x1="0"
       y1="0"
       x2="1"
       y2="0"
       gradientUnits="userSpaceOnUse"
       gradientTransform="matrix(-1.53e-5,-481.97034,-481.97034,1.53e-5,413.43359,573.89551)"
       spreadMethod="pad"
       id="linearGradient21622"><stop
         style="stop-opacity:1;stop-color:#f0bf00"
         offset="0"
         id="stop21618" /><stop
         style="stop-opacity:1;stop-color:#694e0e"
         offset="1"
         id="stop21620" /></linearGradient><linearGradient
       x1="0"
       y1="0"
       x2="1"
       y2="0"
       gradientUnits="userSpaceOnUse"
       gradientTransform="matrix(-1.53e-5,-481.97229,-481.97229,1.53e-5,305.45898,573.896)"
       spreadMethod="pad"
       id="linearGradient21642"><stop
         style="stop-opacity:1;stop-color:#f0bf00"
         offset="0"
         id="stop21638" /><stop
         style="stop-opacity:1;stop-color:#694e0e"
         offset="1"
         id="stop21640" /></linearGradient></defs><sodipodi:namedview
     pagecolor="#ffffff"
     bordercolor="#666666"
     borderopacity="1"
     objecttolerance="10"
     gridtolerance="10"
     guidetolerance="10"
     inkscape:pageopacity="0"
     inkscape:pageshadow="2"
     inkscape:window-width="1920"
     inkscape:window-height="1018"
     id="namedview21568"
     showgrid="false"
     inkscape:zoom="0.76591743"
     inkscape:cx="520.33898"
     inkscape:cy="418.64407"
     inkscape:window-x="-8"
     inkscape:window-y="-8"
     inkscape:window-maximized="1"
     inkscape:current-layer="g21574" /><g
     id="g21574"
     inkscape:groupmode="layer"
     inkscape:label="cup-trophy-publicdomainvectors.org"
     transform="matrix(1.3333333,0,0,-1.3333333,0,800)"><g
       id="g21576"><g
         id="g21578"
         clip-path="url(#clipPath21582)"><path
           d="M 600,0 H 0 v 600 h 600 z"
           style="fill:#ffffff;fill-opacity:1;fill-rule:nonzero;stroke:none"
           id="path21584"
           inkscape:connector-curvature="0" /><g
           id="g21586"><g
             id="g21588"><g
               id="g21594"><g
                 id="g21596"><path
                   d="m 266.262,123.432 c -0.246,0.657 -0.505,1.289 -0.72,2 -1.758,5.831 -1.55,11.05 -1.55,11.05 0,0 3.06,-4.233 4.819,-10.064 0.42,-1.395 0.699,-2.718 0.924,-3.977 -1.145,0.327 -2.3,0.656 -3.473,0.991 m -3.639,-12.149 c -5.34,-2.929 -10.49,-3.806 -10.49,-3.806 0,0 3.509,3.87 8.849,6.799 1.142,0.625 2.265,1.149 3.339,1.597 1.2,-0.353 2.386,-0.704 3.554,-1.048 -1.421,-1.14 -3.173,-2.402 -5.252,-3.542 m -23.652,19.79 c -0.042,0.218 -0.103,0.407 -0.141,0.63 -1.002,5.933 -0.143,10.997 -0.143,10.997 0,0 2.484,-4.554 3.487,-10.486 0.121,-0.716 0.188,-1.4 0.26,-2.083 -1.142,0.309 -2.302,0.626 -3.463,0.942 M 234.179,118.3 c -5.629,-2.122 -10.814,-2.27 -10.814,-2.27 0,0 3.942,3.295 9.572,5.415 2.28,0.861 4.475,1.388 6.294,1.722 0.904,-0.255 1.831,-0.517 2.724,-0.767 -1.672,-1.153 -4.385,-2.823 -7.776,-4.1 m -17.578,20.146 c -0.675,0.246 -1.323,0.484 -2.001,0.731 -0.352,0.139 -0.699,0.315 -1.048,0.462 -0.097,0.804 -0.201,1.606 -0.24,2.471 -0.261,5.938 1.203,10.77 1.203,10.77 0,0 1.888,-4.791 2.15,-10.727 0.058,-1.317 0.013,-2.542 -0.064,-3.707 m -9.501,-8.8 c -5.798,-1.302 -10.917,-0.736 -10.917,-0.736 0,0 4.281,2.68 10.079,3.983 1.132,0.253 2.23,0.427 3.276,0.556 0.757,-0.339 1.511,-0.713 2.275,-1.022 0.579,-0.219 1.13,-0.427 1.706,-0.642 -1.719,-0.754 -3.897,-1.573 -6.419,-2.139 m -14.497,26.029 c -0.156,-2.018 -0.498,-3.862 -0.879,-5.431 -0.806,0.458 -1.626,0.927 -2.437,1.389 -0.074,1.382 -0.104,2.854 0.021,4.456 0.453,5.852 2.469,10.388 2.469,10.388 0,0 1.28,-4.952 0.826,-10.802 m -10.888,-10.952 c -5.848,-0.488 -10.806,0.765 -10.806,0.765 0,0 4.524,2.042 10.372,2.529 0.075,0.006 0.141,0.002 0.215,0.006 1.519,-0.884 3.019,-1.757 4.52,-2.632 -1.312,-0.284 -2.737,-0.537 -4.301,-0.668 m -23.377,18.403 c -5.787,0.312 -10.495,2.21 -10.495,2.21 0,0 3.386,0.997 7.948,1.109 0.794,-0.656 1.596,-1.311 2.38,-1.971 0.555,-0.448 1.095,-0.906 1.639,-1.363 -0.49,0.003 -0.962,-0.013 -1.472,0.015 m -31.119,25.038 c 0,0 2.313,0.348 5.595,0.201 1.078,-1.193 2.17,-2.362 3.267,-3.528 -5.055,1.176 -8.862,3.327 -8.862,3.327 m -18.126,25.527 c 0,0 1.589,0.02 3.936,-0.301 0.777,-1.12 1.553,-2.242 2.344,-3.347 -3.735,1.711 -6.28,3.648 -6.28,3.648 m -15.53,27.955 c 0,0 1.52,-0.19 3.729,-0.808 0.569,-1.18 1.159,-2.347 1.747,-3.518 -3.321,2.152 -5.476,4.326 -5.476,4.326 m -12.534,30.119 c 0,0 1.95,-0.524 4.574,-1.786 l 1.086,-3.542 c 0.073,-0.209 0.155,-0.415 0.229,-0.624 -3.618,2.882 -5.889,5.952 -5.889,5.952 m -0.423,50.92 c -10e-4,0.019 -0.002,0.041 -0.003,0.06 1.049,1.062 2.255,2.191 3.689,3.255 4.307,3.198 8.499,4.398 8.499,4.398 0,0 -2.791,-3.985 -7.098,-7.184 -1.779,-1.32 -3.499,-2.265 -4.949,-2.959 -0.047,0.81 -0.09,1.62 -0.138,2.43 m -2.179,-26.878 c -3.964,3.718 -6.289,8.032 -6.289,8.032 0,0 2.781,-1.184 5.972,-3.664 0.282,-1.661 0.642,-3.305 0.996,-4.951 -0.228,0.2 -0.452,0.369 -0.679,0.583 m -5.945,29.137 c -3.338,4.2 -5.009,8.769 -5.009,8.769 0,0 3.742,-2.239 7.08,-6.438 0.305,-0.383 0.544,-0.765 0.82,-1.15 0.048,-1.223 0.095,-2.437 0.142,-3.662 0.013,-0.271 0.029,-0.541 0.038,-0.812 -0.982,0.913 -2.041,1.999 -3.071,3.293 m -1.743,30.005 c -2.656,4.58 -3.645,9.308 -3.645,9.308 0,0 3.317,-2.697 5.973,-7.277 1.034,-1.782 1.795,-3.565 2.364,-5.105 -0.034,-0.496 -0.079,-0.988 -0.11,-1.486 -0.009,-0.455 -0.032,-0.905 -0.047,-1.358 -1.209,1.223 -2.967,3.216 -4.535,5.918 m 9.42,-4.811 c 0.054,1.026 0.133,2.044 0.197,3.066 0.634,0.425 1.267,0.854 1.971,1.25 4.614,2.598 8.842,3.238 8.842,3.238 0,0 -3.253,-3.572 -7.867,-6.17 -1.098,-0.617 -2.146,-1.091 -3.147,-1.504 0,0.04 0.003,0.08 0.004,0.12 m 3.879,31.701 c 0.33,0.149 0.625,0.316 0.967,0.456 4.837,1.977 9.027,2.073 9.027,2.073 0,0 -3.653,-3.11 -8.49,-5.087 -0.731,-0.299 -1.439,-0.543 -2.127,-0.762 0.201,1.11 0.406,2.218 0.623,3.32 m 7.146,26.995 c 0.334,0.105 0.638,0.23 0.983,0.325 4.976,1.352 9.061,0.933 9.061,0.933 0,0 -3.983,-2.613 -8.959,-3.966 -0.731,-0.199 -1.433,-0.346 -2.115,-0.475 0.339,1.064 0.676,2.13 1.03,3.183 m 10.447,25.583 c 0.523,0.107 1.022,0.234 1.568,0.313 5.035,0.737 8.955,-0.16 8.955,-0.16 0,0 -4.243,-2.092 -9.279,-2.829 -0.925,-0.136 -1.798,-0.207 -2.63,-0.248 0.444,0.99 0.915,1.957 1.386,2.924 m 13.739,24.107 c 0.742,0.08 1.489,0.16 2.276,0.181 5.019,0.136 8.723,-1.199 8.723,-1.199 0,0 -4.433,-1.555 -9.452,-1.69 -1.168,-0.032 -2.227,0.032 -3.221,0.124 0.551,0.877 1.115,1.726 1.674,2.584 m 11.82,28.703 c 0.918,4.868 3.13,8.976 3.13,8.976 0,0 0.723,-3.785 -0.194,-8.653 -0.326,-1.724 -0.817,-3.302 -1.31,-4.686 -0.679,-0.796 -1.35,-1.62 -2.021,-2.446 -0.111,1.566 -0.139,3.973 0.395,6.809 m 4.802,-6.517 c 0.055,0.059 0.106,0.118 0.162,0.178 0.986,0.015 2.021,-0.008 3.086,-0.105 4.934,-0.445 8.378,-2.174 8.378,-2.174 0,0 -4.555,-1.006 -9.49,-0.562 -1.413,0.128 -2.67,0.369 -3.792,0.636 0.551,0.678 1.098,1.371 1.656,2.027 m 16.702,27.163 c 1.568,4.629 4.302,8.37 4.302,8.37 0,0 0.192,-3.765 -1.375,-8.394 -0.425,-1.257 -0.937,-2.397 -1.455,-3.464 -0.746,-0.635 -1.449,-1.233 -2.215,-1.884 -0.169,-0.163 -0.355,-0.341 -0.524,-0.504 0.149,1.514 0.492,3.585 1.267,5.876 m 7.023,-7.196 c 4.784,-1.002 7.929,-3.08 7.929,-3.08 0,0 -4.61,-0.455 -9.394,0.547 -1.613,0.338 -3.033,0.797 -4.215,1.258 0.126,0.122 0.264,0.257 0.389,0.378 0.563,0.484 1.076,0.925 1.628,1.399 1.165,-0.096 2.388,-0.235 3.663,-0.502 m 17.167,25.315 c 2.174,4.304 5.375,7.61 5.375,7.61 0,0 -0.323,-3.673 -2.497,-7.977 -0.545,-1.076 -1.147,-2.053 -1.754,-2.967 -0.034,-0.022 -0.061,-0.04 -0.096,-0.064 -0.941,-0.617 -1.994,-1.307 -3.032,-1.988 0.361,1.435 0.965,3.328 2.004,5.386 m 5.932,-7.8 c 4.572,-1.531 7.385,-3.915 7.385,-3.915 0,0 -4.6,0.1 -9.173,1.632 -1.624,0.544 -3.004,1.191 -4.134,1.803 0.739,0.492 1.475,0.98 2.166,1.438 1.196,-0.234 2.455,-0.522 3.756,-0.958 m 27.904,16.881 c 0,0 -4.739,-3.569 -11.321,-5.695 -2.563,-0.828 -5.007,-1.307 -7.057,-1.593 l -1.294,2.176 c 1.909,1.04 4.359,2.202 7.16,3.106 6.581,2.126 12.512,2.006 12.512,2.006 m 118.509,-425.76 c 0,0 -0.375,0.041 -1.097,0.035 -0.284,-0.047 -0.991,0.064 -1.745,0.155 -0.779,0.116 -1.611,0.153 -2.686,0.375 -4.172,0.66 -10.48,2.091 -18.454,4.07 -7.916,1.977 -17.517,4.557 -28.489,7.633 1.8,5.546 3.64,14.561 -0.314,21.271 -6.122,10.39 -16.576,18.138 -16.576,18.138 0,0 -4.939,-16.818 1.184,-27.207 2.197,-3.729 4.58,-6.984 6.743,-9.648 -2.91,0.83 -5.899,1.682 -8.969,2.557 -2.572,0.758 -5.646,1.608 -8.432,2.363 2.173,5.191 4.093,12.491 1.42,18.695 -4.73,10.98 -14.059,19.981 -14.059,19.981 0,0 -6.975,-15.728 -2.245,-26.709 1.478,-3.432 3.144,-6.547 4.736,-9.209 -0.358,0.098 -0.697,0.19 -1.057,0.288 -1.681,0.468 -3.396,0.892 -5.098,1.413 -1.673,0.611 -3.362,1.229 -5.067,1.853 -1.736,0.635 -3.534,1.292 -5.303,1.939 2.973,4.772 6.423,12.277 4.391,19.261 -3.313,11.382 -11.391,21.46 -11.391,21.46 0,0 -8.784,-14.42 -5.472,-25.802 1.311,-4.508 2.98,-8.553 4.519,-11.802 -2.525,1.128 -5.041,2.332 -7.625,3.491 -3.43,1.632 -7.007,3.108 -10.349,5.149 3.592,4.032 9.147,11.731 7.846,19.717 -1.889,11.603 -8.615,22.574 -8.615,22.574 0,0 -10.35,-12.931 -8.461,-24.534 0.951,-5.837 2.554,-11.006 3.916,-14.727 -1.832,1.044 -3.643,2.076 -5.499,3.135 -3.544,2.079 -6.861,4.611 -10.366,6.935 -1.136,0.779 -2.282,1.565 -3.427,2.349 3.603,2.845 11.892,10.407 11.517,19.539 -0.477,11.645 -5.767,23.323 -5.767,23.323 0,0 -11.67,-11.296 -11.193,-22.939 0.298,-7.275 1.706,-13.715 2.719,-17.525 0.031,1.81 0.191,4.021 0.657,6.349 1.137,5.682 3.649,9.862 3.649,9.862 0,0 0.668,-5.033 -0.469,-10.716 -0.575,-2.871 -1.496,-5.343 -2.27,-7.101 -0.217,0.148 -0.432,0.297 -0.65,0.446 -1.726,1.238 -3.325,2.663 -5.007,3.996 -3.31,2.733 -6.737,5.4 -10.042,8.258 -1.99,1.804 -3.909,3.733 -5.85,5.624 1.864,0.982 14.227,7.877 15.071,18.525 0.913,11.522 -2.874,23.72 -2.874,23.72 0,0 -12.743,-9.541 -13.656,-21.061 -0.57,-7.196 0.042,-13.72 0.582,-17.604 0.244,1.775 0.663,3.93 1.394,6.156 1.784,5.437 4.733,9.211 4.733,9.211 0,0 0.059,-5.04 -1.727,-10.477 -1.187,-3.618 -2.886,-6.492 -3.893,-8.015 -0.027,-0.002 -0.07,-0.002 -0.098,-0.005 -6.966,6.826 -13.621,14.167 -19.849,22.032 0.51,0.221 0.883,0.397 1.083,0.495 1.698,0.623 14.874,5.764 16.999,16.266 2.272,11.23 0.044,23.76 0.044,23.76 0,0 -13.57,-7.694 -15.842,-18.923 -1.42,-7.016 -1.605,-13.526 -1.545,-17.425 0.45,1.716 1.117,3.781 2.097,5.878 2.393,5.119 5.721,8.443 5.721,8.443 0,0 -0.549,-4.976 -2.941,-10.093 -1.592,-3.407 -3.594,-6.01 -4.758,-7.376 -0.502,0.029 -1.14,0.09 -1.846,0.172 -0.784,1.003 -1.513,2.065 -2.284,3.083 0.681,-0.33 1.365,-0.665 1.942,-0.989 -1.02,1.013 -2.323,2.248 -3.859,3.594 -1.358,1.847 -2.762,3.647 -4.075,5.54 -2.878,4.278 -5.583,8.696 -8.151,13.207 0.767,0.209 1.34,0.389 1.603,0.476 1.728,0.387 15.176,3.695 18.533,13.773 3.59,10.778 2.962,23.442 2.962,23.442 0,0 -14.145,-5.773 -17.735,-16.55 -2.242,-6.732 -3.223,-13.132 -3.643,-16.989 0.649,1.634 1.551,3.584 2.762,5.521 2.956,4.73 6.602,7.563 6.602,7.563 0,0 -1.146,-4.835 -4.101,-9.566 -1.967,-3.148 -4.234,-5.448 -5.534,-6.641 -0.612,0.122 -1.441,0.329 -2.348,0.583 -0.686,1.228 -1.374,2.457 -2.038,3.702 0.936,-0.595 1.795,-1.193 2.537,-1.753 -1.069,1.395 -2.551,3.21 -4.308,5.173 -3.252,6.361 -6.218,12.894 -8.893,19.557 0.448,0.069 0.799,0.131 0.986,0.167 1.727,0.151 15.202,1.616 19.738,11.121 4.85,10.165 5.844,22.759 5.844,22.759 0,0 -14.464,-3.807 -19.314,-13.971 -3.029,-6.349 -4.792,-12.542 -5.688,-16.294 0.837,1.527 1.96,3.331 3.381,5.083 3.468,4.277 7.368,6.587 7.368,6.587 0,0 -1.725,-4.623 -5.194,-8.899 -2.308,-2.847 -4.8,-4.815 -6.214,-5.818 -0.403,0.14 -0.888,0.323 -1.43,0.544 -0.44,1.113 -0.854,2.236 -1.278,3.356 0.421,-0.39 0.872,-0.788 1.233,-1.152 -0.575,1.018 -1.306,2.246 -2.15,3.588 -0.142,0.387 -0.297,0.769 -0.437,1.157 l -4.234,13.368 c -0.808,2.891 -1.455,5.819 -2.095,8.75 2.746,-0.079 14.864,0.061 20.196,8.367 6.032,9.397 8.642,21.71 8.642,21.71 0,0 -14.519,-1.83 -20.551,-11.227 -3.768,-5.869 -6.287,-11.752 -7.648,-15.341 1.012,1.396 2.337,3.03 3.944,4.572 3.921,3.762 8.004,5.524 8.004,5.524 0,0 -2.277,-4.338 -6.199,-8.101 -2.494,-2.393 -5.017,-3.948 -6.55,-4.784 -0.303,1.386 -0.601,2.777 -0.928,4.157 -0.47,2.277 -1.115,4.534 -1.442,6.821 l -0.929,6.862 -0.933,6.844 -0.352,2.571 c 4.451,-0.409 13.352,-0.327 18.537,5.86 7.11,8.487 11.3,20.307 11.3,20.307 0,0 -14.313,0.116 -21.423,-8.37 -3.904,-4.658 -6.872,-9.45 -8.757,-12.829 -0.214,4.442 -0.426,8.868 -0.637,13.271 -0.159,3.361 0.021,6.876 0.139,10.347 4.6,-0.749 11.661,-0.877 16.695,3.78 8.06,7.453 13.748,18.578 13.748,18.578 0,0 -13.853,1.976 -21.912,-5.477 -3.264,-3.019 -5.98,-6.131 -8.135,-8.821 0.472,6.728 1.207,13.374 2.307,19.882 4.357,-1.155 10.597,-1.758 15.718,1.903 8.853,6.329 15.919,16.579 15.919,16.579 0,0 -13.161,3.7 -22.015,-2.629 -2.995,-2.141 -5.637,-4.399 -7.876,-6.479 1.273,6.092 2.781,12.055 4.515,17.852 4.07,-1.659 10.012,-2.985 15.468,-0.027 9.487,5.144 17.782,14.365 17.782,14.365 0,0 -12.272,5.256 -21.759,0.113 -3.191,-1.731 -6.086,-3.629 -8.543,-5.393 1.672,4.804 3.472,9.497 5.42,14.028 0.492,1.061 0.952,2.121 1.421,3.183 3.728,-2.181 9.502,-4.389 15.406,-2.064 9.955,3.922 19.318,11.989 19.318,11.989 0,0 -11.222,6.62 -21.179,2.699 -3.678,-1.449 -7.04,-3.14 -9.836,-4.701 1.775,3.369 3.526,6.693 5.248,9.958 1.446,2.392 2.868,4.745 4.295,7.068 3.299,-2.649 8.825,-5.805 15.178,-4.145 10.265,2.681 20.525,9.49 20.525,9.49 0,0 -10.045,7.787 -20.31,5.106 -4.205,-1.099 -8.074,-2.533 -11.195,-3.845 1.093,1.64 2.203,3.251 3.353,4.804 1.01,1.441 2.01,2.868 2.998,4.279 1.023,1.385 2.124,2.688 3.164,4.014 0.968,1.196 1.909,2.39 2.846,3.571 2.788,-3.018 7.942,-7.15 14.705,-6.218 10.422,1.436 21.406,6.903 21.406,6.903 0,0 -8.767,8.755 -19.188,7.318 -4.749,-0.655 -9.154,-1.762 -12.558,-2.775 3.949,4.33 7.58,8.594 11.468,12.158 1.345,1.309 2.615,2.547 3.902,3.8 2.228,-3.264 6.81,-8.294 13.877,-8.161 10.431,0.196 21.964,4.247 21.964,4.247 0,0 -7.409,9.526 -17.84,9.33 -5.178,-0.098 -10.023,-0.764 -13.611,-1.41 1.182,1.015 2.393,2.055 3.52,3.025 3.69,3.324 7.325,6.026 10.603,8.479 1.479,1.119 2.861,2.166 4.193,3.175 1.695,-3.408 5.538,-9.045 12.661,-9.759 10.293,-1.032 22.197,1.542 22.197,1.542 0,0 -5.994,10.104 -16.288,11.137 -5.265,0.527 -10.265,0.429 -13.916,0.209 0.032,0.021 0.071,0.046 0.102,0.067 2.684,1.777 4.967,3.289 6.818,4.514 2.079,1.254 3.599,2.171 4.562,2.751 4.318,-0.172 12.68,-0.152 21.914,1.741 13.416,2.752 23.826,19.717 23.826,19.717 0,0 -14.486,2.91 -27.902,0.158 -10.232,-2.098 -17.011,-13.435 -19.659,-18.707 -0.991,-0.591 -2.539,-1.514 -4.644,-2.769 -1.157,-0.758 -2.542,-1.663 -4.029,-2.636 2.36,2.193 5.027,4.866 7.584,7.958 6.592,7.973 3.75,19.372 3.75,19.372 0,0 -10.274,-6.541 -16.867,-14.513 -5.373,-6.497 -2.711,-14.656 -1.542,-17.454 -0.026,-0.018 -0.047,-0.031 -0.074,-0.048 -1.495,-1.118 -3.085,-2.306 -4.765,-3.561 -3.374,-2.495 -7.117,-5.251 -10.875,-8.599 -0.509,-0.433 -1.069,-0.908 -1.589,-1.351 2.139,2.587 4.612,5.849 6.864,9.509 5.469,8.883 1.027,20.106 1.027,20.106 0,0 -9.348,-7.877 -14.816,-16.762 -4.557,-7.405 -0.48,-15.546 1.007,-18.056 -1.495,-1.44 -2.991,-2.88 -4.562,-4.393 -4.105,-3.728 -7.934,-8.207 -12.131,-12.743 2.037,3.104 4.681,7.524 6.88,12.54 4.226,9.634 -1.805,20.456 -1.805,20.456 0,0 -8.255,-9.076 -12.481,-18.71 -3.732,-8.51 2.372,-16.713 3.85,-18.514 -1.129,-1.401 -2.263,-2.822 -3.431,-4.249 -1.065,-1.344 -2.192,-2.665 -3.241,-4.07 -1.014,-1.431 -2.039,-2.877 -3.075,-4.338 -2.442,-3.264 -4.732,-6.758 -6.995,-10.364 -0.023,0.006 -0.06,0.013 -0.082,0.019 -0.357,1.478 -0.864,4.239 -0.709,7.577 0.233,5.015 1.874,9.418 1.874,9.418 0,0 1.263,-3.73 1.029,-8.746 -0.095,-2.054 -0.427,-4 -0.786,-5.587 1.677,3.319 4.248,8.938 6.048,15.317 2.88,10.211 -4.71,20.406 -4.71,20.406 0,0 -7.007,-10.126 -9.888,-20.337 -2.693,-9.55 5.648,-17.457 6.741,-18.441 0.034,-0.039 0.096,-0.107 0.147,-0.165 -1.607,-2.571 -3.205,-5.188 -4.832,-7.85 -1.821,-3.41 -3.672,-6.877 -5.552,-10.397 -1.068,-2.018 -2.028,-4.116 -2.977,-6.236 -0.197,0.022 -0.435,0.043 -0.601,0.065 -0.57,1.444 -1.472,4.156 -1.791,7.526 -0.479,5.066 0.546,9.684 0.546,9.684 0,0 1.802,-3.594 2.282,-8.661 0.196,-2.075 0.138,-4.068 0.004,-5.706 1.216,3.534 3.006,9.486 3.909,16.109 1.449,10.602 -7.646,19.934 -7.646,19.934 0,0 -5.614,-11.009 -7.063,-21.61 -1.354,-9.915 8.172,-16.859 9.412,-17.718 0.109,-0.097 0.312,-0.269 0.562,-0.474 -0.584,-1.307 -1.161,-2.614 -1.775,-3.922 -3.006,-6.92 -5.732,-14.184 -8.13,-21.711 -0.348,-0.007 -0.709,-0.016 -0.982,-0.012 -0.781,1.375 -2.08,3.98 -2.884,7.316 -1.207,5.013 -0.833,9.761 -0.833,9.761 0,0 2.333,-3.378 3.541,-8.391 0.495,-2.054 0.721,-4.057 0.819,-5.714 0.722,3.688 1.677,9.867 1.644,16.608 -0.054,10.791 -10.567,19.022 -10.567,19.022 0,0 -4.093,-11.709 -4.038,-22.5 0.05,-10.092 10.656,-15.88 12.031,-16.588 0.164,-0.111 0.482,-0.317 0.92,-0.58 -2.668,-8.527 -4.9,-17.4 -6.554,-26.559 -0.006,-0.033 -0.01,-0.067 -0.017,-0.099 -0.246,-0.035 -0.528,-0.079 -0.732,-0.101 -0.986,1.274 -2.673,3.71 -3.964,6.939 -1.938,4.853 -2.24,9.64 -2.24,9.64 0,0 2.843,-3.079 4.781,-7.931 0.795,-1.988 1.311,-3.959 1.648,-5.601 0.201,3.773 0.282,10.06 -0.718,16.786 -1.601,10.765 -13.409,17.658 -13.409,17.658 0,0 -2.46,-12.204 -0.86,-22.969 1.498,-10.068 13.051,-14.51 14.541,-15.043 0.15,-0.075 0.431,-0.206 0.785,-0.363 -1.438,-7.854 -2.338,-15.918 -2.898,-24.088 -0.37,3.829 -1.197,9.721 -3.055,15.902 -3.159,10.512 -16.096,15.843 -16.096,15.843 0,0 -0.748,-12.473 2.412,-22.985 2.798,-9.314 13.996,-12.423 16.517,-13.012 -0.151,-3.856 -0.415,-7.676 -0.267,-11.708 0.066,-1.688 0.131,-3.394 0.197,-5.087 -0.792,2.255 -1.741,4.66 -2.876,7.091 -4.687,10.031 -18.547,13.604 -18.547,13.604 0,0 1.006,-12.501 5.692,-22.531 3.374,-7.223 11.783,-9.625 16.237,-10.407 0.002,-0.028 0.001,-0.057 0.003,-0.085 l 0.443,-3.54 0.893,-7.098 0.032,-0.252 c -0.223,0.353 -0.437,0.706 -0.67,1.06 -6.135,9.329 -20.675,10.996 -20.675,10.996 0,0 2.748,-12.284 8.884,-21.612 3.746,-5.695 10.676,-7.451 15.52,-7.96 0.73,-3.468 1.44,-6.943 2.363,-10.368 l 0.235,-0.763 c -7.838,6.543 -20.51,6.277 -20.51,6.277 0,0 4.431,-11.832 11.899,-20.262 4.059,-4.582 10.259,-5.712 15.084,-5.795 1.213,-3.174 2.512,-6.311 3.854,-9.427 -8.697,4.544 -20.339,2.707 -20.339,2.707 0,0 6.02,-11.16 14.672,-18.522 4.438,-3.775 10.41,-4.229 15.183,-3.783 1.55,-2.843 3.15,-5.654 4.818,-8.417 -9.339,3.264 -20.784,-0.143 -20.784,-0.143 0,0 7.489,-10.29 17.158,-16.435 5.053,-3.211 11.288,-2.772 16.092,-1.625 2.091,-2.742 4.243,-5.415 6.429,-8.047 -10.213,3.075 -22.778,-2.528 -22.778,-2.528 0,0 8.818,-9.242 19.328,-14.046 5.936,-2.713 12.731,-0.983 17.532,1.036 2.482,-2.508 4.994,-4.968 7.558,-7.333 0.3,-0.266 0.611,-0.513 0.912,-0.775 -0.167,0.051 -0.327,0.108 -0.496,0.161 -11.161,3.358 -25.004,-5.137 -25.004,-5.137 0,0 9.997,-8.027 21.156,-11.386 6.979,-2.101 14.359,1.389 18.921,4.299 1.766,-1.234 3.524,-2.466 5.272,-3.687 2.377,-1.61 4.691,-3.265 7.026,-4.863 -1.647,0.379 -3.376,0.723 -5.166,1.003 -11.613,1.824 -24.483,-8.6 -24.483,-8.6 0,0 11.008,-6.663 22.621,-8.486 8.206,-1.288 16.075,4.65 19.99,8.245 0.498,-0.29 1.012,-0.588 1.507,-0.878 3.507,-2.211 7.276,-3.802 10.888,-5.56 1.652,-0.762 3.273,-1.557 4.892,-2.335 -3.231,0.519 -6.989,0.939 -11.024,1.012 -11.854,0.216 -23.47,-12.04 -23.47,-12.04 0,0 11.842,-5.158 23.696,-5.371 9.423,-0.171 17.288,8.764 20.126,12.444 2.446,-0.921 4.905,-1.847 7.292,-2.743 1.758,-0.66 3.502,-1.316 5.228,-1.964 1.756,-0.554 3.525,-1.011 5.259,-1.514 2.069,-0.582 4.058,-1.141 6.074,-1.71 -4.004,0.408 -10.607,0.77 -17.919,-0.12 -11.87,-1.444 -21.945,-15.392 -21.945,-15.392 0,0 12.475,-3.527 24.344,-2.083 10.612,1.293 17.825,13.889 19.237,16.549 0.138,-0.038 0.285,-0.08 0.423,-0.119 3.466,-0.96 6.18,-1.751 9.408,-2.721 3.187,-0.939 6.283,-1.854 9.297,-2.742 -3.675,-0.361 -8.16,-1.035 -12.892,-2.304 -11.647,-3.125 -19.904,-18.587 -19.904,-18.587 0,0 12.887,-1.794 24.535,1.331 8.724,2.343 14.052,12.343 16.182,17.222 0.143,-0.043 0.299,-0.088 0.441,-0.129 11.112,-3.227 20.838,-5.938 28.917,-8.034 8.094,-2.083 14.48,-3.603 19.074,-4.379 1.101,-0.237 2.231,-0.329 3.126,-0.463 0.926,-0.116 1.627,-0.247 2.495,-0.227 1.572,0.014 2.382,0.02 2.382,0.02 z"
                   style="fill:url(#linearGradient21602);stroke:none"
                   id="path21604"
                   inkscape:connector-curvature="0" /></g></g></g></g><g
           id="g21606"><g
             id="g21608"><g
               id="g21614"><g
                 id="g21616"><path
                   d="m 522.438,271.765 c 0,0 -2.271,-3.07 -5.889,-5.952 0.074,0.209 0.155,0.415 0.228,0.624 l 1.087,3.542 c 2.623,1.262 4.574,1.786 4.574,1.786 m -18.01,-34.445 c 0.589,1.171 1.177,2.338 1.748,3.518 2.209,0.618 3.728,0.808 3.728,0.808 0,0 -2.156,-2.174 -5.476,-4.326 m -16.333,-27.277 c 0.792,1.105 1.567,2.227 2.343,3.347 2.348,0.321 3.936,0.301 3.936,0.301 0,0 -2.544,-1.937 -6.279,-3.648 m -20.708,-25.206 c 1.095,1.166 2.188,2.335 3.265,3.528 3.285,0.147 5.596,-0.201 5.596,-0.201 0,0 -3.807,-2.151 -8.861,-3.327 m -11.762,-19.501 c 0,0 -4.709,-1.898 -10.496,-2.21 -0.51,-0.028 -0.983,-0.012 -1.472,-0.015 0.544,0.457 1.084,0.915 1.638,1.363 0.784,0.66 1.587,1.315 2.381,1.971 4.562,-0.112 7.949,-1.109 7.949,-1.109 m -23.068,-19.848 c 0,0 -4.957,-1.253 -10.805,-0.765 -1.564,0.131 -2.989,0.384 -4.302,0.668 1.503,0.875 3.003,1.748 4.521,2.632 0.074,-0.004 0.139,0 0.215,-0.006 5.848,-0.487 10.371,-2.529 10.371,-2.529 m -18.377,6.145 c -0.811,-0.462 -1.632,-0.931 -2.437,-1.389 -0.38,1.569 -0.723,3.413 -0.879,5.431 -0.455,5.85 0.826,10.802 0.826,10.802 0,0 2.017,-4.536 2.47,-10.388 0.124,-1.602 0.095,-3.074 0.02,-4.456 m -6.896,-22.723 c 0,0 -5.119,-0.566 -10.917,0.736 -2.521,0.566 -4.7,1.385 -6.418,2.139 0.574,0.215 1.126,0.423 1.705,0.642 0.764,0.309 1.518,0.683 2.276,1.022 1.046,-0.129 2.143,-0.303 3.275,-0.556 5.798,-1.303 10.079,-3.983 10.079,-3.983 m -18.416,10.267 c -0.68,-0.247 -1.327,-0.485 -2.002,-0.731 -0.076,1.165 -0.122,2.39 -0.063,3.707 0.261,5.936 2.148,10.727 2.148,10.727 0,0 1.466,-4.832 1.204,-10.77 -0.038,-0.865 -0.143,-1.667 -0.239,-2.471 -0.351,-0.147 -0.696,-0.323 -1.048,-0.462 m -24.23,-7.474 c -0.037,-0.223 -0.1,-0.412 -0.142,-0.63 -1.161,-0.316 -2.32,-0.633 -3.464,-0.942 0.072,0.683 0.141,1.367 0.261,2.083 1.003,5.932 3.488,10.486 3.488,10.486 0,0 0.859,-5.064 -0.143,-10.997 m 5.891,-10.258 c 5.631,-2.12 9.574,-5.415 9.574,-5.415 0,0 -5.185,0.148 -10.816,2.27 -3.39,1.277 -6.102,2.947 -7.775,4.1 0.892,0.25 1.82,0.512 2.724,0.767 1.82,-0.334 4.014,-0.861 6.293,-1.722 m -28.044,-7.169 c 5.34,-2.929 8.85,-6.799 8.85,-6.799 0,0 -5.151,0.877 -10.491,3.806 -2.078,1.14 -3.83,2.402 -5.252,3.542 1.169,0.344 2.354,0.695 3.554,1.048 1.075,-0.448 2.199,-0.972 3.339,-1.597 m -7.828,12.142 c 1.758,5.831 4.819,10.064 4.819,10.064 0,0 0.208,-5.219 -1.551,-11.05 -0.216,-0.711 -0.474,-1.343 -0.72,-2 -1.174,-0.335 -2.327,-0.664 -3.473,-0.991 0.224,1.259 0.503,2.582 0.925,3.977 m 183.116,196.796 c -4.306,3.199 -7.097,7.184 -7.097,7.184 0,0 4.192,-1.2 8.5,-4.398 1.433,-1.064 2.639,-2.193 3.687,-3.255 0,-0.019 -0.001,-0.041 -0.002,-0.06 -0.048,-0.81 -0.09,-1.62 -0.138,-2.43 -1.451,0.694 -3.17,1.639 -4.95,2.959 m 7.584,-23.039 c 3.19,2.48 5.973,3.664 5.973,3.664 0,0 -2.326,-4.314 -6.289,-8.032 -0.228,-0.214 -0.452,-0.383 -0.68,-0.583 0.355,1.646 0.714,3.29 0.996,4.951 m -5.191,51.347 c -4.614,2.598 -7.868,6.17 -7.868,6.17 0,0 4.228,-0.64 8.843,-3.238 0.704,-0.396 1.337,-0.825 1.969,-1.25 0.065,-1.022 0.145,-2.04 0.2,-3.066 0.001,-0.04 0.003,-0.08 0.003,-0.12 -1.001,0.413 -2.049,0.887 -3.147,1.504 m -2.242,27.759 c -4.836,1.977 -8.488,5.087 -8.488,5.087 0,0 4.189,-0.096 9.026,-2.073 0.342,-0.14 0.638,-0.306 0.968,-0.456 0.216,-1.102 0.422,-2.21 0.623,-3.32 -0.689,0.219 -1.398,0.463 -2.129,0.762 m -6.726,26.845 c -4.976,1.353 -8.96,3.966 -8.96,3.966 0,0 4.086,0.419 9.063,-0.933 0.345,-0.095 0.648,-0.22 0.984,-0.325 0.352,-1.053 0.69,-2.119 1.028,-3.183 -0.681,0.129 -1.383,0.276 -2.115,0.475 m -10.607,25.615 c -5.034,0.737 -9.278,2.829 -9.278,2.829 0,0 3.92,0.897 8.955,0.16 0.546,-0.079 1.046,-0.206 1.567,-0.313 0.473,-0.967 0.943,-1.934 1.387,-2.924 -0.83,0.041 -1.704,0.112 -2.631,0.248 m -14.041,24.075 c -5.018,0.135 -9.451,1.69 -9.451,1.69 0,0 3.703,1.335 8.722,1.199 0.787,-0.021 1.534,-0.101 2.276,-0.181 0.56,-0.858 1.123,-1.707 1.674,-2.584 -0.994,-0.092 -2.051,-0.156 -3.221,-0.124 m -9.879,24.602 c -0.67,0.826 -1.341,1.65 -2.02,2.447 -0.494,1.383 -0.985,2.961 -1.308,4.685 -0.919,4.868 -0.196,8.653 -0.196,8.653 0,0 2.212,-4.108 3.13,-8.976 0.535,-2.836 0.506,-5.243 0.394,-6.809 m -7.333,-2.371 c -4.934,-0.444 -9.488,0.562 -9.488,0.562 0,0 3.443,1.729 8.377,2.174 1.064,0.097 2.101,0.12 3.086,0.105 0.055,-0.06 0.107,-0.119 0.163,-0.178 0.557,-0.656 1.104,-1.349 1.654,-2.027 -1.121,-0.267 -2.378,-0.508 -3.792,-0.636 m -13.821,24.454 c -0.768,0.651 -1.469,1.249 -2.216,1.884 -0.519,1.067 -1.03,2.207 -1.455,3.464 -1.567,4.629 -1.375,8.394 -1.375,8.394 0,0 2.733,-3.741 4.301,-8.37 0.777,-2.291 1.119,-4.362 1.268,-5.876 -0.169,0.163 -0.354,0.341 -0.523,0.504 m -6.302,-4.357 c -4.783,-1.002 -9.395,-0.547 -9.395,-0.547 0,0 3.145,2.078 7.93,3.08 1.275,0.267 2.498,0.406 3.663,0.502 0.551,-0.474 1.064,-0.915 1.627,-1.399 0.126,-0.121 0.265,-0.256 0.39,-0.378 -1.181,-0.461 -2.601,-0.92 -4.215,-1.258 m -19.661,24.45 c -0.033,0.024 -0.062,0.042 -0.096,0.064 -0.605,0.914 -1.209,1.891 -1.753,2.967 -2.173,4.304 -2.496,7.977 -2.496,7.977 0,0 3.2,-3.306 5.374,-7.61 1.039,-2.058 1.644,-3.951 2.004,-5.386 -1.038,0.681 -2.091,1.371 -3.033,1.988 m -3.115,-6.685 c -4.572,-1.532 -9.172,-1.632 -9.172,-1.632 0,0 2.811,2.384 7.383,3.915 1.302,0.436 2.561,0.724 3.758,0.958 0.69,-0.458 1.425,-0.946 2.165,-1.438 -1.131,-0.612 -2.51,-1.259 -4.134,-1.803 m -18.372,13.469 c -6.581,2.126 -11.32,5.695 -11.32,5.695 0,0 5.931,0.12 12.513,-2.006 2.8,-0.904 5.251,-2.067 7.16,-3.107 l -1.294,-2.175 c -2.051,0.286 -4.496,0.765 -7.059,1.593 M 527.953,322.463 c 0.047,1.225 0.094,2.439 0.141,3.662 0.277,0.385 0.515,0.767 0.819,1.15 3.338,4.199 7.081,6.438 7.081,6.438 0,0 -1.671,-4.569 -5.009,-8.769 -1.03,-1.294 -2.089,-2.38 -3.072,-3.293 0.01,0.271 0.025,0.541 0.04,0.812 m 2.446,34.517 c 2.658,4.58 5.975,7.277 5.975,7.277 0,0 -0.989,-4.728 -3.645,-9.308 -1.567,-2.702 -3.326,-4.695 -4.535,-5.918 -0.015,0.453 -0.039,0.903 -0.048,1.358 -0.031,0.498 -0.076,0.99 -0.11,1.486 0.568,1.54 1.33,3.323 2.363,5.105 m -7.04,-66.424 c 4.843,0.509 11.775,2.265 15.519,7.96 6.137,9.328 8.886,21.612 8.886,21.612 0,0 -14.539,-1.667 -20.676,-10.996 -0.234,-0.354 -0.447,-0.707 -0.67,-1.06 l 0.031,0.252 0.894,7.098 0.442,3.54 c 0.002,0.028 10e-4,0.057 0.005,0.085 4.453,0.782 12.86,3.184 16.236,10.407 4.686,10.03 5.693,22.531 5.693,22.531 0,0 -13.862,-3.573 -18.548,-13.604 -1.135,-2.431 -2.084,-4.836 -2.876,-7.091 0.065,1.693 0.133,3.399 0.197,5.087 0.147,4.032 -0.116,7.852 -0.267,11.708 2.521,0.589 13.717,3.698 16.517,13.012 3.159,10.512 2.412,22.985 2.412,22.985 0,0 -12.938,-5.331 -16.096,-15.843 -1.858,-6.181 -2.684,-12.073 -3.056,-15.902 -0.559,8.17 -1.459,16.234 -2.898,24.088 0.355,0.157 0.635,0.288 0.787,0.363 1.49,0.533 13.043,4.975 14.54,15.043 1.6,10.765 -0.861,22.969 -0.861,22.969 0,0 -11.806,-6.893 -13.407,-17.658 -1.001,-6.726 -0.92,-13.013 -0.719,-16.786 0.337,1.642 0.854,3.613 1.648,5.601 1.94,4.852 4.782,7.931 4.782,7.931 0,0 -0.303,-4.787 -2.241,-9.64 -1.29,-3.229 -2.978,-5.665 -3.964,-6.939 -0.204,0.022 -0.485,0.066 -0.731,0.101 -0.006,0.032 -0.01,0.066 -0.018,0.099 -1.654,9.159 -3.886,18.032 -6.554,26.559 0.438,0.263 0.756,0.469 0.921,0.58 1.373,0.708 11.98,6.496 12.03,16.588 0.055,10.791 -4.038,22.5 -4.038,22.5 0,0 -10.511,-8.231 -10.567,-19.022 -0.033,-6.741 0.921,-12.92 1.643,-16.608 0.098,1.657 0.326,3.66 0.821,5.714 1.207,5.013 3.54,8.391 3.54,8.391 0,0 0.375,-4.748 -0.834,-9.761 -0.804,-3.336 -2.102,-5.941 -2.883,-7.316 -0.273,-0.004 -0.634,0.005 -0.982,0.012 -2.398,7.527 -5.124,14.791 -8.129,21.711 -0.615,1.308 -1.192,2.615 -1.776,3.922 0.249,0.205 0.453,0.377 0.564,0.474 1.238,0.859 10.763,7.803 9.41,17.718 -1.447,10.601 -7.064,21.61 -7.064,21.61 0,0 -9.093,-9.332 -7.645,-19.934 0.903,-6.623 2.694,-12.575 3.91,-16.109 -0.136,1.638 -0.192,3.631 0.004,5.706 0.479,5.067 2.28,8.661 2.28,8.661 0,0 1.027,-4.618 0.547,-9.684 -0.319,-3.37 -1.222,-6.082 -1.792,-7.526 -0.166,-0.022 -0.403,-0.043 -0.598,-0.065 -0.952,2.12 -1.911,4.218 -2.979,6.236 -1.88,3.52 -3.731,6.987 -5.552,10.397 -1.627,2.662 -3.225,5.279 -4.832,7.85 0.051,0.058 0.113,0.126 0.147,0.165 1.092,0.984 9.434,8.891 6.741,18.441 -2.88,10.211 -9.887,20.337 -9.887,20.337 0,0 -7.592,-10.195 -4.711,-20.406 1.8,-6.379 4.371,-11.998 6.048,-15.317 -0.358,1.587 -0.69,3.533 -0.786,5.587 -0.232,5.016 1.029,8.746 1.029,8.746 0,0 1.641,-4.403 1.873,-9.418 0.157,-3.338 -0.35,-6.099 -0.708,-7.577 -0.022,-0.006 -0.057,-0.013 -0.081,-0.019 -2.263,3.606 -4.553,7.1 -6.996,10.364 -1.035,1.461 -2.061,2.907 -3.076,4.338 -1.048,1.405 -2.175,2.726 -3.24,4.07 -1.168,1.427 -2.302,2.848 -3.431,4.249 1.479,1.802 7.582,10.004 3.85,18.514 -4.226,9.634 -12.481,18.71 -12.481,18.71 0,0 -6.031,-10.822 -1.805,-20.456 2.199,-5.016 4.842,-9.436 6.88,-12.54 -4.198,4.536 -8.027,9.016 -12.131,12.743 -1.572,1.513 -3.067,2.953 -4.562,4.393 1.486,2.511 5.564,10.651 1.007,18.056 -5.468,8.885 -14.815,16.762 -14.815,16.762 0,0 -4.442,-11.223 1.025,-20.106 2.253,-3.66 4.725,-6.921 6.865,-9.509 -0.52,0.443 -1.08,0.919 -1.589,1.351 -3.76,3.348 -7.501,6.104 -10.875,8.599 -1.679,1.255 -3.269,2.443 -4.765,3.561 -0.026,0.017 -0.048,0.03 -0.075,0.048 1.17,2.798 3.832,10.957 -1.541,17.454 -6.592,7.972 -16.867,14.513 -16.867,14.513 0,0 -2.843,-11.399 3.75,-19.372 2.557,-3.092 5.225,-5.765 7.584,-7.958 -1.488,0.973 -2.87,1.878 -4.028,2.636 -2.107,1.255 -3.653,2.178 -4.645,2.77 -2.648,5.271 -9.426,16.608 -19.659,18.706 -13.415,2.752 -27.902,-0.158 -27.902,-0.158 0,0 10.41,-16.965 23.826,-19.717 9.233,-1.893 17.597,-1.913 21.914,-1.741 0.963,-0.58 2.484,-1.497 4.564,-2.751 1.849,-1.225 4.131,-2.737 6.817,-4.514 0.03,-0.021 0.069,-0.046 0.1,-0.067 -3.649,0.22 -8.649,0.318 -13.915,-0.209 -10.293,-1.033 -16.289,-11.137 -16.289,-11.137 0,0 11.906,-2.574 22.198,-1.542 7.123,0.714 10.966,6.351 12.661,9.759 1.331,-1.009 2.715,-2.056 4.193,-3.175 3.277,-2.453 6.912,-5.155 10.604,-8.479 1.128,-0.97 2.337,-2.01 3.519,-3.025 -3.589,0.646 -8.433,1.312 -13.611,1.41 -10.429,0.196 -17.84,-9.33 -17.84,-9.33 0,0 11.533,-4.051 21.963,-4.247 7.068,-0.133 11.65,4.897 13.877,8.161 1.287,-1.253 2.558,-2.491 3.902,-3.8 3.89,-3.564 7.521,-7.828 11.469,-12.158 -3.402,1.013 -7.81,2.12 -12.558,2.775 -10.422,1.437 -19.188,-7.318 -19.188,-7.318 0,0 10.985,-5.467 21.406,-6.903 6.763,-0.932 11.917,3.2 14.705,6.218 0.938,-1.181 1.877,-2.375 2.846,-3.571 1.04,-1.326 2.142,-2.629 3.165,-4.014 0.988,-1.411 1.987,-2.838 2.996,-4.279 1.15,-1.553 2.261,-3.164 3.355,-4.804 -3.123,1.312 -6.991,2.746 -11.196,3.845 -10.264,2.681 -20.31,-5.106 -20.31,-5.106 0,0 10.26,-6.809 20.525,-9.49 6.353,-1.66 11.879,1.496 15.179,4.145 1.426,-2.323 2.848,-4.676 4.294,-7.068 1.721,-3.265 3.473,-6.589 5.248,-9.958 -2.795,1.561 -6.158,3.252 -9.836,4.701 -9.956,3.921 -21.179,-2.699 -21.179,-2.699 0,0 9.363,-8.067 19.317,-11.989 5.906,-2.325 11.679,-0.117 15.408,2.064 0.468,-1.062 0.928,-2.122 1.421,-3.183 1.947,-4.531 3.748,-9.224 5.42,-14.028 -2.458,1.764 -5.353,3.662 -8.544,5.393 -9.487,5.143 -21.759,-0.113 -21.759,-0.113 0,0 8.296,-9.221 17.782,-14.365 5.456,-2.958 11.398,-1.632 15.468,0.027 1.734,-5.797 3.241,-11.76 4.514,-17.852 -2.238,2.08 -4.879,4.338 -7.875,6.479 -8.853,6.329 -22.016,2.629 -22.016,2.629 0,0 7.066,-10.25 15.921,-16.579 5.12,-3.661 11.361,-3.058 15.718,-1.903 1.1,-6.509 1.834,-13.154 2.306,-19.882 -2.155,2.69 -4.87,5.801 -8.136,8.821 -8.058,7.453 -21.911,5.477 -21.911,5.477 0,0 5.69,-11.125 13.747,-18.578 5.036,-4.657 12.097,-4.529 16.696,-3.78 0.119,-3.471 0.298,-6.986 0.139,-10.347 -0.212,-4.403 -0.424,-8.829 -0.635,-13.271 -1.887,3.379 -4.855,8.171 -8.759,12.829 -7.111,8.486 -21.424,8.37 -21.424,8.37 0,0 4.19,-11.82 11.302,-20.307 5.185,-6.187 14.086,-6.268 18.536,-5.86 l -0.352,-2.571 -0.933,-6.844 -0.93,-6.862 c -0.326,-2.287 -0.971,-4.544 -1.44,-6.821 -0.329,-1.38 -0.625,-2.771 -0.93,-4.157 -1.532,0.836 -4.055,2.391 -6.548,4.784 -3.923,3.763 -6.2,8.101 -6.2,8.101 0,0 4.082,-1.762 8.005,-5.524 1.606,-1.542 2.932,-3.176 3.942,-4.572 -1.359,3.589 -3.879,9.472 -7.646,15.341 -6.032,9.397 -20.552,11.227 -20.552,11.227 0,0 2.611,-12.313 8.642,-21.71 5.332,-8.306 17.452,-8.446 20.197,-8.367 -0.641,-2.931 -1.288,-5.859 -2.096,-8.75 l -4.234,-13.368 c -0.14,-0.388 -0.294,-0.771 -0.437,-1.157 -0.845,-1.343 -1.575,-2.571 -2.15,-3.588 0.361,0.364 0.812,0.762 1.232,1.15 -0.423,-1.118 -0.837,-2.241 -1.276,-3.354 -0.543,-0.221 -1.029,-0.404 -1.431,-0.544 -1.414,1.003 -3.905,2.971 -6.214,5.818 -3.468,4.276 -5.193,8.899 -5.193,8.899 0,0 3.898,-2.31 7.367,-6.587 1.422,-1.752 2.544,-3.556 3.381,-5.083 -0.896,3.752 -2.659,9.945 -5.689,16.294 -4.848,10.164 -19.313,13.971 -19.313,13.971 0,0 0.994,-12.594 5.845,-22.759 4.535,-9.505 18.009,-10.97 19.736,-11.121 0.189,-0.036 0.539,-0.098 0.986,-0.167 -2.673,-6.663 -5.639,-13.196 -8.892,-19.557 -1.756,-1.963 -3.239,-3.778 -4.307,-5.173 0.739,0.56 1.6,1.158 2.536,1.753 -0.664,-1.245 -1.351,-2.474 -2.039,-3.702 -0.906,-0.254 -1.734,-0.461 -2.346,-0.583 -1.301,1.193 -3.568,3.493 -5.535,6.641 -2.956,4.731 -4.101,9.566 -4.101,9.566 0,0 3.645,-2.833 6.603,-7.563 1.21,-1.937 2.114,-3.887 2.761,-5.521 -0.42,3.857 -1.401,10.257 -3.643,16.989 -3.59,10.777 -17.734,16.55 -17.734,16.55 0,0 -0.628,-12.664 2.962,-23.442 3.356,-10.078 16.805,-13.386 18.532,-13.773 0.264,-0.087 0.837,-0.267 1.604,-0.476 -2.569,-4.511 -5.274,-8.929 -8.152,-13.207 -1.312,-1.893 -2.715,-3.693 -4.075,-5.54 -1.536,-1.346 -2.839,-2.581 -3.859,-3.594 0.577,0.324 1.262,0.658 1.942,0.989 -0.769,-1.018 -1.5,-2.08 -2.284,-3.083 -0.706,-0.082 -1.345,-0.143 -1.846,-0.172 -1.164,1.366 -3.166,3.969 -4.757,7.376 -2.394,5.117 -2.943,10.093 -2.943,10.093 0,0 3.33,-3.324 5.722,-8.443 0.979,-2.097 1.647,-4.162 2.097,-5.878 0.061,3.899 -0.125,10.409 -1.545,17.425 -2.272,11.229 -15.841,18.923 -15.841,18.923 0,0 -2.228,-12.53 0.045,-23.76 2.123,-10.502 15.299,-15.643 16.997,-16.266 0.2,-0.098 0.573,-0.274 1.083,-0.495 -6.227,-7.865 -12.882,-15.206 -19.848,-22.032 -0.029,0.003 -0.07,0.003 -0.099,0.005 -1.006,1.523 -2.706,4.397 -3.894,8.015 -1.783,5.437 -1.727,10.477 -1.727,10.477 0,0 2.951,-3.774 4.734,-9.211 0.732,-2.226 1.151,-4.381 1.393,-6.156 0.541,3.884 1.153,10.408 0.582,17.604 -0.912,11.52 -13.656,21.061 -13.656,21.061 0,0 -3.786,-12.198 -2.873,-23.72 0.844,-10.648 13.208,-17.544 15.071,-18.525 -1.942,-1.891 -3.86,-3.82 -5.849,-5.624 -3.306,-2.858 -6.734,-5.525 -10.042,-8.258 -1.683,-1.333 -3.282,-2.758 -5.009,-3.996 -0.217,-0.149 -0.431,-0.298 -0.648,-0.446 -0.775,1.758 -1.697,4.23 -2.271,7.101 -1.137,5.683 -0.469,10.716 -0.469,10.716 0,0 2.512,-4.18 3.65,-9.862 0.466,-2.328 0.626,-4.539 0.655,-6.349 1.015,3.81 2.421,10.25 2.72,17.525 0.478,11.643 -11.193,22.939 -11.193,22.939 0,0 -5.29,-11.678 -5.766,-23.323 -0.375,-9.132 7.914,-16.694 11.515,-19.539 -1.144,-0.784 -2.29,-1.57 -3.425,-2.349 -3.506,-2.324 -6.824,-4.856 -10.366,-6.935 -1.857,-1.059 -3.668,-2.091 -5.501,-3.135 1.364,3.721 2.966,8.89 3.916,14.727 1.891,11.603 -8.461,24.534 -8.461,24.534 0,0 -6.726,-10.971 -8.614,-22.574 -1.302,-7.986 4.254,-15.685 7.846,-19.717 -3.342,-2.041 -6.918,-3.517 -10.35,-5.149 -2.583,-1.159 -5.098,-2.363 -7.624,-3.491 1.538,3.249 3.208,7.294 4.519,11.802 3.313,11.382 -5.471,25.802 -5.471,25.802 0,0 -8.08,-10.078 -11.391,-21.46 -2.033,-6.984 1.417,-14.489 4.39,-19.261 -1.767,-0.647 -3.567,-1.304 -5.303,-1.939 -1.705,-0.624 -3.394,-1.242 -5.067,-1.853 -1.703,-0.521 -3.417,-0.945 -5.098,-1.413 -0.36,-0.098 -0.7,-0.19 -1.057,-0.288 1.592,2.662 3.258,5.777 4.737,9.209 4.73,10.981 -2.246,26.709 -2.246,26.709 0,0 -9.329,-9.001 -14.06,-19.981 -2.672,-6.204 -0.753,-13.504 1.422,-18.695 -2.787,-0.755 -5.861,-1.605 -8.431,-2.363 -3.071,-0.875 -6.061,-1.727 -8.971,-2.557 2.162,2.664 4.546,5.919 6.743,9.648 6.122,10.389 1.184,27.207 1.184,27.207 0,0 -10.454,-7.748 -16.576,-18.138 -3.955,-6.71 -2.114,-15.725 -0.314,-21.271 -10.972,-3.076 -20.572,-5.656 -28.489,-7.633 -7.973,-1.979 -14.283,-3.41 -18.454,-4.07 -1.075,-0.222 -1.908,-0.259 -2.685,-0.375 -0.754,-0.091 -1.462,-0.202 -1.746,-0.155 -0.721,0.006 -1.096,-0.035 -1.096,-0.035 l -1.092,-8.294 c 0,0 0.811,-0.006 2.381,-0.02 0.869,-0.02 1.57,0.111 2.495,0.227 0.896,0.134 2.026,0.226 3.126,0.463 4.596,0.776 10.981,2.296 19.075,4.379 8.079,2.096 17.807,4.807 28.917,8.034 0.142,0.041 0.298,0.086 0.441,0.129 2.129,-4.879 7.459,-14.879 16.183,-17.222 11.647,-3.125 24.534,-1.331 24.534,-1.331 0,0 -8.257,15.462 -19.904,18.587 -4.732,1.269 -9.216,1.943 -12.892,2.304 3.015,0.888 6.111,1.803 9.296,2.742 3.229,0.97 5.944,1.761 9.41,2.721 0.138,0.039 0.284,0.081 0.422,0.119 1.412,-2.66 8.624,-15.256 19.237,-16.549 11.869,-1.444 24.345,2.083 24.345,2.083 0,0 -10.075,13.948 -21.945,15.392 -7.313,0.89 -13.916,0.528 -17.919,0.12 2.016,0.569 4.005,1.128 6.073,1.71 1.733,0.503 3.504,0.96 5.26,1.514 1.725,0.648 3.467,1.304 5.227,1.964 2.387,0.896 4.846,1.822 7.292,2.743 2.838,-3.68 10.703,-12.615 20.127,-12.444 11.854,0.213 23.694,5.371 23.694,5.371 0,0 -11.614,12.256 -23.468,12.04 -4.034,-0.073 -7.794,-0.493 -11.025,-1.012 1.619,0.778 3.24,1.573 4.892,2.335 3.613,1.758 7.383,3.349 10.888,5.56 0.496,0.29 1.009,0.588 1.507,0.878 3.914,-3.595 11.784,-9.533 19.991,-8.245 11.612,1.823 22.621,8.486 22.621,8.486 0,0 -12.87,10.424 -24.485,8.6 -1.79,-0.28 -3.518,-0.624 -5.165,-1.003 2.335,1.598 4.649,3.253 7.027,4.863 1.748,1.221 3.505,2.453 5.271,3.687 4.563,-2.91 11.942,-6.4 18.92,-4.299 11.161,3.359 21.156,11.386 21.156,11.386 0,0 -13.842,8.495 -25.003,5.137 -0.168,-0.053 -0.329,-0.109 -0.497,-0.159 0.302,0.26 0.613,0.507 0.913,0.773 2.565,2.365 5.076,4.825 7.558,7.333 4.802,-2.019 11.597,-3.749 17.532,-1.036 10.51,4.804 19.328,14.046 19.328,14.046 0,0 -12.565,5.603 -22.779,2.528 2.187,2.632 4.339,5.305 6.43,8.047 4.804,-1.147 11.039,-1.586 16.091,1.625 9.671,6.145 17.159,16.435 17.159,16.435 0,0 -11.445,3.407 -20.782,0.143 1.667,2.763 3.266,5.574 4.816,8.417 4.773,-0.446 10.744,0.008 15.183,3.783 8.652,7.362 14.672,18.522 14.672,18.522 0,0 -11.643,1.837 -20.338,-2.707 1.34,3.116 2.64,6.253 3.854,9.427 4.823,0.083 11.024,1.213 15.083,5.795 7.467,8.43 11.899,20.262 11.899,20.262 0,0 -12.671,0.266 -20.51,-6.277 l 0.235,0.763 c 0.922,3.425 1.633,6.9 2.363,10.368"
                   style="fill:url(#linearGradient21622);stroke:none"
                   id="path21624"
                   inkscape:connector-curvature="0" /></g></g></g></g><g
           id="g21626"><g
             id="g21628"><g
               id="g21634"><g
                 id="g21636"><path
                   d="m 414.608,423.74 c 0,-21.65 -7.241,-42.275 -20.389,-58.075 -9.06,-10.885 -18.693,-17.236 -28.693,-19.085 l 2.207,65.923 c 12.229,4.271 21.221,15.576 22.111,28.983 0.838,4.421 3.51,8.289 7.356,10.64 3.916,2.391 8.677,2.982 13.061,1.621 2.6,-0.809 4.347,-3.184 4.347,-5.906 z M 216.7,365.665 c -13.149,15.8 -20.391,36.425 -20.391,58.075 v 24.101 c 0,2.722 1.748,5.096 4.35,5.906 1.549,0.482 3.148,0.721 4.738,0.721 2.907,0 5.791,-0.796 8.322,-2.342 3.847,-2.351 6.517,-6.219 7.358,-10.64 0.888,-13.409 9.881,-24.713 22.11,-28.984 l 2.207,-65.922 c -10.004,1.849 -19.634,8.199 -28.694,19.085 m 196.407,97.227 c -7.014,2.184 -14.633,1.237 -20.901,-2.593 -6.268,-3.83 -10.584,-10.178 -11.845,-17.417 l -0.062,-0.547 C 379.826,434.054 375,426.884 368.087,423.099 l 0.941,28.104 c 3.491,0.609 6.15,3.635 6.15,7.3 4.102,0 7.429,3.326 7.429,7.429 0,4.103 -3.327,7.429 -7.429,7.429 H 235.742 c -4.103,0 -7.429,-3.326 -7.429,-7.429 0,-4.103 3.326,-7.429 7.429,-7.429 0,-3.665 2.659,-6.691 6.149,-7.3 l 0.941,-28.105 c -6.912,3.785 -11.739,10.956 -12.212,19.237 l -0.062,0.547 c -1.26,7.239 -5.577,13.587 -11.845,17.417 -6.267,3.83 -13.882,4.774 -20.9,2.593 -6.627,-2.063 -11.082,-8.112 -11.082,-15.051 V 423.74 c 0,-23.885 8.029,-46.684 22.608,-64.202 10.132,-12.176 21.14,-19.578 32.819,-22.138 -0.189,-0.633 -0.3,-1.301 -0.3,-1.999 v -0.667 c 0,-2.864 1.705,-5.317 4.148,-6.438 l 0.022,-0.657 h 2.925 1.839 c 6.895,-19.782 22.532,-34.84 41.81,-39.554 v -7.606 c 0,-3.989 2.742,-7.311 6.436,-8.259 v -15.234 c -7.357,-0.556 -13.601,-5.031 -16.673,-11.351 h -4.53 c -5.596,0 -10.132,-4.537 -10.132,-10.133 0,-1.633 0.423,-3.152 1.109,-4.519 -9.384,-1.772 -16.487,-10.001 -16.487,-19.901 h 106.27 c 0,9.9 -7.104,18.129 -16.488,19.901 0.687,1.367 1.109,2.886 1.109,4.519 0,5.596 -4.536,10.133 -10.133,10.133 h -4.528 c -3.072,6.32 -9.317,10.795 -16.673,11.351 v 15.234 c 3.693,0.948 6.435,4.27 6.435,8.259 v 7.606 c 19.279,4.714 34.915,19.772 41.81,39.554 h 1.839 2.926 l 0.021,0.657 c 2.442,1.121 4.15,3.574 4.15,6.438 v 0.667 c 0,0.698 -0.112,1.366 -0.301,1.999 11.677,2.561 22.684,9.963 32.818,22.138 14.578,17.517 22.607,40.317 22.607,64.202 v 24.101 c 0,6.939 -4.453,12.988 -11.08,15.051"
                   style="fill:url(#linearGradient21642);stroke:none"
                   id="path21644"
                   inkscape:connector-curvature="0" /></g></g></g></g></g></g></g></svg>